<svg xmlns="http://www.w3.org/2000/svg" width="33.438" height="40" viewBox="0 0 33.438 40">
  <defs>
    <style>
      .cls-1 {
        fill: #f15c23;
        fill-rule: evenodd;
      }
    </style>
  </defs>
  <path class="cls-1" d="M129.977,1118.47a1.674,1.674,0,0,0,1.671,1.67h1.67v5.83a2.506,2.506,0,0,0,5.012,0v-5.83h3.34v5.83a2.506,2.506,0,0,0,5.012,0v-5.83h1.67a1.674,1.674,0,0,0,1.671-1.67V1101.8H129.977v16.67ZM125.8,1101.8a2.5,2.5,0,0,0-2.506,2.5v11.67a2.506,2.506,0,0,0,5.012,0V1104.3A2.5,2.5,0,0,0,125.8,1101.8Zm28.4,0a2.5,2.5,0,0,0-2.506,2.5v11.67a2.506,2.506,0,0,0,5.012,0V1104.3A2.5,2.5,0,0,0,154.2,1101.8Zm-8.3-9.73,2.171-2.17a0.837,0.837,0,1,0-1.186-1.18l-2.472,2.46a9.861,9.861,0,0,0-4.41-1.05,10,10,0,0,0-4.443,1.05l-2.489-2.46a0.837,0.837,0,1,0-1.186,1.18l2.188,2.18a9.98,9.98,0,0,0-4.093,8.05h20.046A9.925,9.925,0,0,0,145.9,1092.07Zm-9.238,4.73h-1.67v-1.67h1.67v1.67Zm8.352,0h-1.67v-1.67h1.67v1.67Z" transform="translate(-123.281 -1088.47)"/>
</svg>
