<svg xmlns="http://www.w3.org/2000/svg" width="33.688" height="40" viewBox="0 0 33.688 40">
  <defs>
    <style>
      .cls-1 {
        fill: #f15c23;
        fill-rule: evenodd;
      }
    </style>
  </defs>
  <path class="cls-1" d="M156.651,1019.17a21.584,21.584,0,0,1-2.152,3.87,19.76,19.76,0,0,1-2.772,3.35,5.372,5.372,0,0,1-3.563,1.57,8.872,8.872,0,0,1-3.291-.79,9.508,9.508,0,0,0-3.543-.78,9.831,9.831,0,0,0-3.643.78,9.79,9.79,0,0,1-3.148.83,5.058,5.058,0,0,1-3.644-1.61,20.424,20.424,0,0,1-2.9-3.47,23.99,23.99,0,0,1-3.066-6.08,22.317,22.317,0,0,1-1.288-7.26,13.222,13.222,0,0,1,1.741-6.93,10.179,10.179,0,0,1,3.646-3.689,9.8,9.8,0,0,1,4.928-1.39,11.6,11.6,0,0,1,3.812.886,12.247,12.247,0,0,0,3.024.889,18.034,18.034,0,0,0,3.353-1.047,11.1,11.1,0,0,1,4.557-.809,9.681,9.681,0,0,1,7.58,3.99,8.745,8.745,0,0,0-1.7,14.02,9.173,9.173,0,0,0,2.772,1.82c-0.223.64-.457,1.26-0.707,1.85h0Zm-7.723-30.378a8.54,8.54,0,0,1-2.189,5.6c-1.76,2.056-3.887,3.244-6.195,3.056a6.313,6.313,0,0,1-.046-0.758,8.769,8.769,0,0,1,2.322-5.658,8.954,8.954,0,0,1,2.829-2.124,8.446,8.446,0,0,1,3.237-.916,7.446,7.446,0,0,1,.042.8h0Z" transform="translate(-123.656 -988)"/>
</svg>
