<svg xmlns="http://www.w3.org/2000/svg" width="80" height="80" viewBox="0 0 80 80">
  <g id="Rounded_Rectangle_2_copy" data-name="Rounded Rectangle 2 copy" transform="translate(-460 -1222)" fill="none">
    <path d="M500,1222h0a40,40,0,0,1,40,40h0a40,40,0,0,1-40,40h0a40,40,0,0,1-40-40h0A40,40,0,0,1,500,1222Z" stroke="none"/>
    <path d="M 499.9999694824219 1223.999877929688 C 494.869140625 1223.999877929688 489.8928527832031 1225.004272460938 485.2093505859375 1226.9853515625 C 480.6845703125 1228.899169921875 476.6204223632813 1231.639282226563 473.1299438476563 1235.1298828125 C 469.6394653320313 1238.620239257813 466.8992309570313 1242.684448242188 464.9854125976563 1247.209228515625 C 463.00439453125 1251.892700195313 462 1256.869018554688 462 1262 C 462 1267.130859375 463.00439453125 1272.107177734375 464.9854125976563 1276.790649414063 C 466.8992309570313 1281.3154296875 469.6394653320313 1285.379638671875 473.1299438476563 1288.8701171875 C 476.6204223632813 1292.360595703125 480.6845703125 1295.100708007813 485.2093505859375 1297.0146484375 C 489.8928527832031 1298.99560546875 494.869140625 1300 499.9999694824219 1300 C 505.130859375 1300 510.1072082519531 1298.99560546875 514.790771484375 1297.0146484375 C 519.3155517578125 1295.100708007813 523.379638671875 1292.360595703125 526.8702392578125 1288.8701171875 C 530.3607177734375 1285.379638671875 533.1009521484375 1281.3154296875 535.0147705078125 1276.790649414063 C 536.9957275390625 1272.107177734375 538.000244140625 1267.130859375 538.000244140625 1261.999877929688 C 538.000244140625 1256.869018554688 536.9957275390625 1251.892700195313 535.0147705078125 1247.209228515625 C 533.1009521484375 1242.684448242188 530.3607177734375 1238.620239257813 526.8702392578125 1235.1298828125 C 523.379638671875 1231.639282226563 519.3155517578125 1228.899169921875 514.790771484375 1226.9853515625 C 510.1072082519531 1225.004272460938 505.130859375 1223.999877929688 499.9999694824219 1223.999877929688 M 499.9999694824219 1221.999877929688 C 522.0914916992188 1221.999877929688 540.000244140625 1239.908447265625 540.000244140625 1261.999877929688 L 540.000244140625 1262 C 540.000244140625 1284.091430664063 522.0914916992188 1302 499.9999694824219 1302 C 477.90869140625 1302 460 1284.091430664063 460 1262 L 460 1261.999877929688 C 460 1239.908447265625 477.90869140625 1221.999877929688 499.9999694824219 1221.999877929688 Z" stroke="none" fill="#f15c23"/>
  </g>
</svg>
