<svg xmlns="http://www.w3.org/2000/svg" width="40.031" height="40.032" viewBox="0 0 40.031 40.032">
  <defs>
    <style>
      .cls-1 {
        fill: #3f3f3f;
        stroke: #3f3f3f;
        stroke-width: 1px;
        fill-rule: evenodd;
        opacity: 0.33;
      }
    </style>
  </defs>
  <path id="_" data-name="" class="cls-1" d="M140.152,230.062a9.748,9.748,0,0,1,5.009,1.35,10.059,10.059,0,0,1,3.659,3.658,9.968,9.968,0,0,1,0,10.018,10.054,10.054,0,0,1-3.659,3.659,9.968,9.968,0,0,1-10.018,0,10.051,10.051,0,0,1-3.658-3.659,9.968,9.968,0,0,1,0-10.018,10.056,10.056,0,0,1,3.658-3.658A9.753,9.753,0,0,1,140.152,230.062Zm0,16.551a6.543,6.543,0,1,0-4.617-1.917A6.29,6.29,0,0,0,140.152,246.613Zm12.806-16.986a2.341,2.341,0,1,0-2.353,2.351,2.121,2.121,0,0,0,1.612-.7A2.718,2.718,0,0,0,152.958,229.627Zm6.62,2.351q0.087,2.439.087,8.1t-0.131,8.144a16.443,16.443,0,0,1-.74,4.312,10.2,10.2,0,0,1-6.185,6.185,16.443,16.443,0,0,1-4.312.74q-2.482.132-8.145,0.131t-8.144-.131a14.237,14.237,0,0,1-4.312-.827,9.3,9.3,0,0,1-3.79-2.308,10.167,10.167,0,0,1-2.4-3.79,16.441,16.441,0,0,1-.741-4.312q-0.13-2.483-.13-8.144t0.13-8.145a16.441,16.441,0,0,1,.741-4.312,10.188,10.188,0,0,1,6.185-6.185,16.441,16.441,0,0,1,4.312-.741q2.482-.13,8.144-0.13t8.145,0.13a16.441,16.441,0,0,1,4.312.741,10.2,10.2,0,0,1,6.185,6.185A17.731,17.731,0,0,1,159.578,231.978Zm-4.182,19.6a18.3,18.3,0,0,0,.7-4.7q0.088-1.917.088-5.4v-2.788q0-3.572-.088-5.4a17.447,17.447,0,0,0-.7-4.7,6.286,6.286,0,0,0-3.745-3.746,17.529,17.529,0,0,0-4.7-.7q-1.917-.087-5.4-0.087h-2.788q-3.483,0-5.4.087a18.4,18.4,0,0,0-4.7.7,6.29,6.29,0,0,0-3.746,3.746,17.488,17.488,0,0,0-.7,4.7q-0.087,1.916-.087,5.4v2.788q0,3.484.087,5.4a18.35,18.35,0,0,0,.7,4.7,6.606,6.606,0,0,0,3.746,3.746,18.359,18.359,0,0,0,4.7.7q1.915,0.089,5.4.088h2.788q3.572,0,5.4-.088a17.5,17.5,0,0,0,4.7-.7A6.6,6.6,0,0,0,155.4,251.578Z" transform="translate(-120.125 -220.062)"/>
</svg>
